<svg width="680" viewBox="0 0 680 750" role="img" xmlns="http://www.w3.org/2000/svg" xmlns:xlink="http://www.w3.org/1999/xlink">
<title>XRefKit業務実行モデル</title>
<desc>人間によるGoal定義と受入れ、AIによるSkill実行、決定論的検証、品質確認、引継ぎ、終了判定、人間への判断返却を示す</desc>
<style>
.th{font:500 14px system-ui,-apple-system,sans-serif}
.ts{font:400 12px system-ui,-apple-system,sans-serif}
.zone{fill:none;stroke:#73726c;stroke-width:.5;stroke-dasharray:6 4}
.zl{fill:#444441}
.arr{stroke:#73726c;stroke-width:1.5;fill:none}
.bp{fill:#EEEDFE;stroke:#534AB7;stroke-width:.5}
.tp1{fill:#3C3489}.tp2{fill:#534AB7}
.bt{fill:#E1F5EE;stroke:#0F6E56;stroke-width:.5}
.tt1{fill:#085041}.tt2{fill:#0F6E56}
.bg{fill:#F1EFE8;stroke:#5F5E5A;stroke-width:.5}
.tg1{fill:#444441}.tg2{fill:#5F5E5A}
@media (prefers-color-scheme: dark){
.zone{stroke:#9c9a92}.zl{fill:#D3D1C7}.arr{stroke:#9c9a92}
.bp{fill:#3C3489;stroke:#CECBF6}.tp1{fill:#CECBF6}.tp2{fill:#AFA9EC}
.bt{fill:#085041;stroke:#9FE1CB}.tt1{fill:#9FE1CB}.tt2{fill:#5DCAA5}
.bg{fill:#444441;stroke:#D3D1C7}.tg1{fill:#D3D1C7}.tg2{fill:#B4B2A9}
}
</style>
<defs><marker id="xrk-arrow" viewBox="0 0 10 10" refX="8" refY="5" markerWidth="6" markerHeight="6" orient="auto-start-reverse"><path d="M2 1L8 5L2 9" fill="none" stroke="context-stroke" stroke-width="1.5" stroke-linecap="round" stroke-linejoin="round"/></marker></defs>

<rect class="zone" x="40" y="40" width="600" height="90" rx="12"/>
<text class="th zl" x="56" y="64">人間の領域 — 目的と受入れ</text>
<g>
  <rect class="bp" x="220" y="58" width="240" height="56" rx="8"/>
  <text class="th tp1" x="340" y="76" text-anchor="middle" dominant-baseline="central">Goal</text>
  <text class="ts tp2" x="340" y="96" text-anchor="middle" dominant-baseline="central">達成状態 + 受入条件</text>
</g>

<line x1="340" y1="114" x2="340" y2="186" class="arr" marker-end="url(#xrk-arrow)"/>

<rect class="zone" x="40" y="170" width="600" height="270" rx="12"/>
<text class="th zl" x="56" y="194">AIの領域 — 限定責務の実行</text>

<g>
  <rect class="bt" x="220" y="190" width="240" height="56" rx="8"/>
  <text class="th tt1" x="340" y="208" text-anchor="middle" dominant-baseline="central">意味による次作業選択</text>
  <text class="ts tt2" x="340" y="228" text-anchor="middle" dominant-baseline="central">Goalと現在状態からSkillを選ぶ</text>
</g>

<line x1="340" y1="246" x2="340" y2="276" class="arr" marker-end="url(#xrk-arrow)"/>

<rect class="zone" x="170" y="280" width="340" height="140" rx="12"/>
<text class="ts zl" x="340" y="298" text-anchor="middle">作業進行規約</text>
<text class="ts zl" x="340" y="314" text-anchor="middle">実行 → 検証 → 品質確認 → 引継ぎ → 終了判定</text>
<g>
  <rect class="bt" x="200" y="330" width="280" height="56" rx="8"/>
  <text class="th tt1" x="340" y="348" text-anchor="middle" dominant-baseline="central">Skill</text>
  <text class="ts tt2" x="340" y="368" text-anchor="middle" dominant-baseline="central">限定された実行責務</text>
</g>

<g>
  <rect class="bg" x="44" y="330" width="132" height="56" rx="8"/>
  <text class="th tg1" x="110" y="348" text-anchor="middle" dominant-baseline="central">Knowledge</text>
  <text class="ts tg2" x="110" y="368" text-anchor="middle" dominant-baseline="central">必要な分だけ参照</text>
</g>
<line x1="176" y1="358" x2="194" y2="358" class="arr" marker-end="url(#xrk-arrow)"/>

<g>
  <rect class="bg" x="504" y="330" width="132" height="56" rx="8"/>
  <text class="th tg1" x="570" y="348" text-anchor="middle" dominant-baseline="central">Evidence</text>
  <text class="ts tg2" x="570" y="368" text-anchor="middle" dominant-baseline="central">判断と根拠を記録</text>
</g>
<line x1="480" y1="358" x2="498" y2="358" class="arr" marker-end="url(#xrk-arrow)"/>

<g>
<path d="M510 310 L590 310 L590 134" class="arr" stroke-dasharray="4 4" marker-end="url(#xrk-arrow)"/>
<text class="ts zl" x="584" y="262" text-anchor="end">判断返却: 人間へ戻す</text>
</g>

<line x1="340" y1="440" x2="340" y2="452" class="arr" marker-end="url(#xrk-arrow)"/>
<g>
  <rect class="bg" x="240" y="456" width="200" height="52" rx="8"/>
  <text class="th tg1" x="340" y="472" text-anchor="middle" dominant-baseline="central">終了判定</text>
  <text class="ts tg2" x="340" y="492" text-anchor="middle" dominant-baseline="central">進行記録の完全性を確認</text>
</g>
<g>
<line x1="340" y1="508" x2="340" y2="536" class="arr" marker-end="url(#xrk-arrow)"/>
<text class="ts zl" x="452" y="506" text-anchor="start">引継ぎ: 成果と未解決状態を渡す</text>
</g>

<rect class="zone" x="40" y="520" width="600" height="90" rx="12"/>
<text class="th zl" x="56" y="544">人間の領域 — 業務判断</text>
<g>
  <rect class="bp" x="220" y="540" width="240" height="56" rx="8"/>
  <text class="th tp1" x="340" y="558" text-anchor="middle" dominant-baseline="central">人間による受入れ</text>
  <text class="ts tp2" x="340" y="578" text-anchor="middle" dominant-baseline="central">Goalの受入条件で判断</text>
</g>

<g>
  <rect class="bg" x="40" y="630" width="600" height="36" rx="8"/>
  <text class="ts tg1" x="340" y="648" text-anchor="middle" dominant-baseline="central">XID — 定義、Knowledge、証跡を安定した識別子で参照</text>
</g>
<line x1="340" y1="666" x2="340" y2="686" class="arr" marker-end="url(#xrk-arrow)"/>
<g>
  <rect class="bt" x="170" y="690" width="340" height="42" rx="8"/>
  <text class="th tt1" x="340" y="704" text-anchor="middle" dominant-baseline="central">改善と組織配布</text>
  <text class="ts tt2" x="340" y="720" text-anchor="middle" dominant-baseline="central">人間による改訂 → 検証 → 次版</text>
</g>
</svg>
